<?xml version="1.0" standalone="no"?>
<!DOCTYPE svg PUBLIC "-//W3C//DTD SVG 20010904//EN"
 "http://www.w3.org/TR/2001/REC-SVG-20010904/DTD/svg10.dtd">
<svg version="1.0" xmlns="http://www.w3.org/2000/svg"
 width="768.000000pt" height="768.000000pt" viewBox="0 0 768.000000 768.000000"
 preserveAspectRatio="xMidYMid meet">

<g transform="translate(0.000000,768.000000) scale(0.100000,-0.100000)"
fill="#13294B" stroke="#FFFFFF">
<path d="M3625 7674 c-22 -2 -96 -9 -165 -15 -331 -29 -713 -121 -1036 -249
-1142 -455 -2007 -1438 -2303 -2619 -86 -344 -115 -580 -115 -951 0 -361 28
-598 108 -925 365 -1485 1597 -2620 3106 -2864 222 -36 350 -45 615 -46 277 0
417 11 655 51 1598 270 2867 1540 3135 3137 40 243 49 359 49 647 0 288 -9
404 -49 647 -157 934 -671 1795 -1421 2379 -565 440 -1221 708 -1934 789 -128
15 -559 28 -645 19z m420 -1496 c200 -31 351 -121 448 -268 59 -90 81 -168 81
-290 0 -173 -49 -296 -161 -400 -110 -103 -251 -157 -424 -162 l-89 -3 0 -328
0 -328 -67 3 -68 3 0 610 0 610 67 3 68 3 2 -218 3 -218 80 3 c256 9 414 134
448 353 13 84 1 169 -34 244 -30 64 -120 155 -187 189 -76 39 -203 65 -333 70
l-114 5 -3 57 c-5 87 -8 85 110 78 57 -3 134 -10 173 -16z m-277 -1935 l-3
-67 -81 -12 c-166 -23 -313 -84 -448 -186 -91 -68 -168 -164 -219 -270 l-42
-87 -67 -1 c-81 0 -81 0 -37 105 59 142 169 280 304 382 144 108 388 197 553
202 l43 1 -3 -67z m377 36 c222 -58 419 -187 551 -363 50 -65 144 -247 144
-278 0 -16 -9 -18 -68 -18 l-68 0 -29 61 c-45 97 -100 172 -189 256 -149 140
-303 210 -507 231 l-74 7 -3 69 -3 69 83 -6 c46 -4 119 -16 163 -28z m-2898
-1075 c113 -31 185 -122 185 -234 0 -148 -93 -237 -258 -248 l-74 -5 -2 -216
-3 -216 -47 -3 -48 -3 0 335 0 336 50 0 50 0 0 -90 0 -90 29 0 c60 0 133 75
146 151 26 154 -84 268 -232 240 l-43 -8 0 33 c0 32 1 33 48 36 67 5 139 -2
199 -18z m2883 -3 c0 -25 -4 -29 -37 -35 -74 -11 -147 -83 -186 -183 -41 -106
-42 -329 -2 -444 38 -106 104 -177 187 -199 31 -9 38 -15 38 -35 0 -29 -1 -29
-72 -14 -77 16 -163 65 -214 123 -86 95 -124 200 -124 342 0 154 44 260 147
354 74 68 151 104 256 119 4 1 7 -12 7 -28z m192 -1 c187 -70 309 -292 278
-508 -19 -133 -58 -210 -154 -299 -66 -62 -128 -93 -213 -108 -41 -6 -43 -6
-43 19 0 21 7 27 42 36 49 14 99 46 128 83 63 80 97 228 86 377 -15 207 -86
330 -207 361 -44 12 -49 16 -49 41 0 28 1 28 43 22 23 -4 63 -15 89 -24z
m-2192 -5 c8 -21 -13 -77 -139 -368 -81 -188 -166 -385 -188 -437 -40 -94 -40
-95 -78 -98 -28 -3 -36 0 -32 10 2 7 87 202 187 433 100 231 189 435 196 453
17 38 41 42 54 7z m2870 -325 c5 -374 7 -385 64 -442 34 -33 98 -63 154 -73
39 -6 42 -9 42 -37 l0 -31 -52 7 c-71 10 -135 39 -181 84 -52 50 -75 98 -87
179 -11 78 -14 646 -3 657 4 4 19 6 33 4 l25 -3 5 -345z m638 -2 c-3 -347 -4
-354 -27 -406 -42 -94 -129 -151 -253 -168 l-48 -7 0 31 c0 26 5 33 28 38 51
12 107 52 130 92 33 60 41 154 42 480 l0 292 66 0 66 0 -4 -352z m480 -115
l-3 -468 -30 0 -30 0 -3 468 -2 467 35 0 35 0 -2 -467z m320 437 c90 -39 142
-117 142 -212 -1 -101 -64 -184 -169 -222 -28 -10 -51 -20 -51 -22 0 -2 72
-103 160 -224 88 -122 160 -223 160 -225 0 -3 -33 -5 -74 -5 l-74 0 -159 220
c-124 173 -163 219 -180 220 -17 0 -23 6 -23 24 0 21 6 24 53 30 30 4 75 20
105 37 64 36 92 85 92 160 0 116 -74 191 -190 192 -60 0 -60 0 -60 30 l0 30
108 -5 c82 -4 119 -10 160 -28z m-2938 -10 l0 -30 -370 0 -370 0 0 30 0 30
370 0 370 0 0 -30z m-1151 -473 c93 -208 173 -387 176 -397 6 -19 1 -20 -77
-20 l-84 0 -61 148 -61 147 -146 3 c-149 3 -156 5 -136 43 10 17 22 19 130 19
66 0 120 4 120 9 0 5 -22 60 -49 123 -69 162 -67 149 -30 239 18 44 36 76 40
72 4 -5 84 -178 178 -386z m841 -12 l0 -395 -65 0 -65 0 0 395 0 395 65 0 65
0 0 -395z"/>
</g>
</svg>
